<?xml version="1.0" encoding="UTF-8"?>
<svg id="Layer_1" xmlns="http://www.w3.org/2000/svg" version="1.1" viewBox="0 0 800 800">
  <!-- Generator: Adobe Illustrator 29.3.0, SVG Export Plug-In . SVG Version: 2.1.0 Build 146)  -->
  <defs>
    <style>
      .st0 {
        fill: #ff6043;
      }
    </style>
  </defs>
  <path class="st0" d="M402,188.7c-2.5.2-13.5,1.4-24.5,2.8-31,3.8-56.6,5.5-85.2,5.5h-26.3v3h-49v1.5c0,.8,1.2,1.7,2.8,2.1,17.2,3.7,28.2,9.3,38.5,19.6l7.7,7.7v-15.8l-4.7-3.7c-2.7-2.1-5.2-4.2-5.8-4.7-.6-.6,1.3-.7,4.8-.2l5.7.6v-7.1h73.7c40.5,0,73.4.2,73.2.4s-6.9,1.6-14.9,3c-33.1,6-75.6,16.5-102.8,25.2-11,3.6-16.1,5.8-21.8,9.6l-7.4,4.9v85.8l5.3-1.5c27.3-7.8,53-17.1,56.6-20.5l2.2-2.1-2.1-2.3c-1.2-1.2-5-3.5-8.6-5s-6.3-3.3-6.1-3.9c1.7-5.4,51.8-20.9,90.7-28,53-9.7,89-10.8,119.9-3.5,6.4,1.5,8.6,1.7,9.2.8.9-1.5,2.4,3.8,4,14.1,1.5,9.5.6,24.2-2.1,33.7-1.1,4-2,10-2,13.3v6l-9.8,4.9c-23.2,11.7-57,20.5-109.2,28.6-11.8,1.8-21.7,3.2-21.9,2.9-.5-.5-1.3.4,30.3-35.3,29.8-33.8,33.9-38.8,32.9-40.4-.9-1.4-14.3-.2-23.8,2.3-11,2.9-28.2,11.5-39,19.6-10.7,8.1-38.4,35.5-51.3,50.9l-9.2,11.1-27.2,3.3c-15,1.8-29.9,3.8-33,4.3l-5.8,1v16.8h-22v3c0,4.2,3.3,10.4,6.9,12.9,3.8,2.7,11.1,6,13.4,6.1h1.7v-22h9.1l-.4,68.2-.4,68.3-1.6,9.2c-.9,5.1-2.7,11.8-3.9,15l-2.3,5.8-.5-55.4-.5-55.4-8.1,11.9c-20.8,30.5-30.3,50.6-32.3,68.6-2.5,22.1,5.3,39.4,23.5,52.4,3.4,2.4,8.7,5.6,11.8,7s5.6,2.9,5.6,3.4,1.7,1,3.8,1.3c2,.2,7.8,1.4,12.7,2.5,24.7,5.7,50.6,5.6,80.2-.4l12.2-2.4h75.3c57.9-.1,76.1-.4,78.8-1.4l3.5-1.3.3-12.7c.1-7-.1-12.5-.5-12.3-13,8-17.4,10.4-25.9,13.7-9.3,3.6-24.7,8-28.4,8s2-2,6.2-4.4c10.6-6,16.2-10.3,23.9-18.3,11.2-11.6,18.9-25.2,23.1-40.7l1.8-7v-26.4c0-29.4-.4-32.1-6.9-47.1-6.6-15.5-20-32.2-34.4-43s-5.6-4.5-5.4-4.7c1.3-1.4,26.5,11,36.7,18,4.1,2.8,8,5.5,8.7,5.9,1,.6,1.3-2,1.3-12.8v-13.5h-39.7c0,.1-39.8.1-39.8.1l6.9,2.5c35.5,12.4,57.7,40.6,62.6,79.8,5.5,43.1-13.9,84-47.4,100.5-20.2,9.9-46.9,13.4-74.6,9.6-36.2-4.8-51.8-20-56-54.5-.6-4.9-1-35.3-1-73.2v-64.8h18.7l3.6-3.9,3.5-3.8,9.9-1.2c52.9-6.4,105.8-19.6,140.8-35.2,6-2.7,11.3-4.9,11.7-4.9s.8,2.1,1,4.7l.3,4.8,9-9.1c16.6-16.6,23.2-32.2,24.2-56.9,1.2-27.8-7.1-49.8-25.9-68.9l-7.8-7.9v-17.7h3.8c0-.1,3.7-.2,3.7-.2l-3.5-1c-2.4-.7-3.6-.6-3.8.1s-5.6,1.1-15.9,1.1h-15.6l-9.2-3c-11.8-3.7-26.1-6.6-39.9-7.9-10-1-39.7-1.2-50.6-.4ZM317.3,481.2c.3,56.9.8,82.4,1.6,84.9,1.2,3.9,7.4,10.2,18,18.2,3.4,2.7,6.1,5,5.9,5.1-.1.2-7.7-.3-16.8-1.1-15.9-1.4-45.1-1.2-55.7.3l-4.3.7v-2.1c0-1.4,2.3-4,6.8-7.5,8.5-6.8,10.1-8.7,11.8-13.4l1.3-3.8v-81.3c.1,0,.1-81.2.1-81.2h30.8l.5,81.2Z"/>
  <path class="st0" d="M217,603v3l6.8-.5c8.2-.7,38-2.5,40.4-2.5s1.8-.7,1.8-1.5v-1.5h-49v3Z"/>
</svg>