<?xml version="1.0" encoding="UTF-8"?>
<svg id="Layer_1" xmlns="http://www.w3.org/2000/svg" version="1.1" viewBox="0 0 800 800">
  <!-- Generator: Adobe Illustrator 29.3.0, SVG Export Plug-In . SVG Version: 2.1.0 Build 146)  -->
  <defs>
    <style>
      .st0 {
        fill: #ff6043;
      }
    </style>
  </defs>
  <path class="st0" d="M321.7,187.8c-2.1,5.5-3.7,10.4-3.7,11s2.6,1.2,7.8,1.2h7.7c0,.1-11.2,3.5-11.2,3.5-27.6,8.5-44.4,17.4-64.1,33.9-27,22.7-43.5,51.2-49.4,85.1l-2,12,.5,18c.5,17.8,2,27.6,6.1,41.9l1.7,5.6h15.4c0-.1,17.9-17.3,17.9-17.3l18-17.3-3.7-8.4c-9.2-21.6-12.5-43.8-9.6-64.6,4.8-34.8,26.6-57.1,67.2-68.8,14.2-4.1,33.9-6.6,58-7.3l21.7-.6v81.8l15.7,51.2,15.7,51.3h64.3l.7,10.2c.3,5.7.9,13.3,1.2,17l.7,6.8h-98.3v19h-25.1c-19.7,0-25-.3-24.6-1.3.2-.6,2.6-8.2,5.1-16.7,2.6-8.5,6.1-19.9,7.7-25.2l3-9.8,16.7-.2,16.7-.3.2-44,.2-44-5.9,11.7c-8.5,16.6-25.8,58.2-31.5,75.5-.3,1-13.7,1.3-60.5,1.5l-60.2.3-37.4,99.5c-20.6,54.7-37.4,99.6-37.4,99.7s9.8.3,21.8.6c11.9.2,48,1.4,80.1,2.6l58.5,2.2,2.5-2.6,2.6-2.5h-13.3c-10.1,0-13.2-.3-13.2-1.3s3.2-11.9,7-25c3.9-13,7-23.9,7-24.2s18-.5,40-.5h40v-83h75.8l11.1-7.6c6.2-4.2,11.4-7.4,11.5-7.2.2.1,1,8.6,1.9,18.8,3.8,42.3,12.8,89.4,24.4,128.2l.5,1.8h-16.6c-9.1,0-16.6.3-16.6.6s1.4,5.3,3.2,11l3.1,10.4h71.4c39.2,0,71.3-.3,71.3-.8s-1.6-5.3-3.7-11l-3.7-10.2h-39c-21.5,0-38.6-.4-38-.8.5-.5,10.4-5,22-10,43.7-18.9,50.4-23,50.4-30.7s-.4-4.5-1-5.9l-.9-2.5-6.6,3c-13.7,6.2-29.3,8.3-39.2,5.4-11-3.3-15.7-13.2-23.8-51-6.5-30.4-10.7-62.1-12.1-92.8l-.7-14.7h6.6c3.7,0,6.7-.2,6.7-.5s-16.6-44.8-37-99c-20.3-54.1-37-98.9-37-99.5s12.7-1,39.3-1h39.3l1.7-3.5c.9-2,1.7-3.8,1.7-4,0-.3-4.8-.5-10.7-.5s-21.3-.7-34.2-1.6c-17.8-1.2-35.4-1.5-72.3-1.2l-48.8.3v-11.5h-74.7l-3.6,9.8Z"/>
</svg>